<svg width="1200" height="270" viewBox="0 0 1200 270" fill="none" xmlns="http://www.w3.org/2000/svg">
<rect width="1200" height="270" fill="#232829"/>
<path d="M540.649 151.126C547.807 157.266 555.92 164.225 571.612 164.225C587.305 164.225 595.418 157.266 602.577 151.126C609.346 145.32 615.192 140.306 627.386 140.306C639.581 140.306 645.427 145.32 652.196 151.126C654.178 152.826 657.162 152.598 658.861 150.616C660.56 148.635 660.332 145.651 658.35 143.951C651.192 137.812 643.079 130.853 627.386 130.853C611.693 130.853 603.58 137.811 596.422 143.951C589.653 149.757 583.806 154.772 571.612 154.772C559.419 154.772 553.573 149.758 546.804 143.951C544.823 142.252 541.839 142.48 540.139 144.461C538.439 146.443 538.668 149.427 540.649 151.126Z" fill="#5DEE9F"/>
<path d="M540.649 125.274C547.807 131.414 555.92 138.373 571.612 138.373C587.305 138.373 595.418 131.414 602.577 125.274C609.346 119.468 615.192 114.453 627.386 114.453C639.58 114.453 645.426 119.468 652.196 125.274C654.178 126.974 657.161 126.745 658.861 124.763C660.56 122.782 660.331 119.797 658.35 118.098C651.192 111.958 643.079 105 627.386 105C611.693 105 603.58 111.959 596.422 118.099C589.653 123.905 583.806 128.919 571.612 128.919C559.419 128.919 553.573 123.905 546.804 118.099C544.823 116.399 541.839 116.627 540.139 118.609C538.439 120.59 538.668 123.574 540.649 125.274Z" fill="#6875E5"/>
<rect x="327" y="260" width="10" height="327" transform="rotate(90 327 260)" fill="#6875E5"/>
<rect x="1200" width="10" height="383" transform="rotate(90 1200 0)" fill="#5DEE9F"/>
</svg>
